<!DOCTYPE svg PUBLIC "-//W3C//DTD SVG 1.1//EN" "http://www.w3.org/Graphics/SVG/1.1/DTD/svg11.dtd">

<!-- Uploaded to: SVG Repo, www.svgrepo.com, Transformed by: SVG Repo Mixer Tools -->
<svg height="36px" width="29px" version="1.1" id="Capa_1" xmlns="http://www.w3.org/2000/svg" xmlns:xlink="http://www.w3.org/1999/xlink" viewBox="0 0 58 58" xml:space="preserve" fill="#000000" stroke="#000000" stroke-width="0.00058">

<g id="SVGRepo_bgCarrier" stroke-width="0"/>

<g id="SVGRepo_tracerCarrier" stroke-linecap="round" stroke-linejoin="round" stroke="#f5f5f5" stroke-width="11.6"> <g> <path style="fill:#FFA500;" d="M29,1.5c-16.016,0-29,11.641-29,26c0,5.292,1.768,10.211,4.796,14.318 C4.398,46.563,3.254,53.246,0,56.5c0,0,9.943-1.395,16.677-5.462c0.007,0.003,0.015,0.006,0.022,0.009 c2.764-1.801,5.532-3.656,6.105-4.126c0.3-0.421,0.879-0.548,1.33-0.277c0.296,0.178,0.483,0.503,0.489,0.848 c0.01,0.622-0.005,0.784-5.585,4.421C22.146,52.933,25.498,53.5,29,53.5c16.016,0,29-11.641,29-26S45.016,1.5,29,1.5z"/> <circle style="fill:#FFFFFF;" cx="15" cy="27.5" r="3"/> <circle style="fill:#FFFFFF;" cx="29" cy="27.5" r="3"/> <circle style="fill:#FFFFFF;" cx="43" cy="27.5" r="3"/> </g> </g>

<g id="SVGRepo_iconCarrier"> <g> <path style="fill:#FFA500;" d="M29,1.5c-16.016,0-29,11.641-29,26c0,5.292,1.768,10.211,4.796,14.318 C4.398,46.563,3.254,53.246,0,56.5c0,0,9.943-1.395,16.677-5.462c0.007,0.003,0.015,0.006,0.022,0.009 c2.764-1.801,5.532-3.656,6.105-4.126c0.3-0.421,0.879-0.548,1.33-0.277c0.296,0.178,0.483,0.503,0.489,0.848 c0.01,0.622-0.005,0.784-5.585,4.421C22.146,52.933,25.498,53.5,29,53.5c16.016,0,29-11.641,29-26S45.016,1.5,29,1.5z"/> <circle style="fill:#FFFFFF;" cx="15" cy="27.5" r="3"/> <circle style="fill:#FFFFFF;" cx="29" cy="27.5" r="3"/> <circle style="fill:#FFFFFF;" cx="43" cy="27.5" r="3"/> </g> </g>

</svg>